<svg width="18" height="18" viewBox="0 0 18 18" fill="none" xmlns="http://www.w3.org/2000/svg">
<path d="M7.55625 16.5C7.3225 16.5 7.12643 16.42 6.96803 16.26C6.80963 16.1 6.7307 15.9022 6.73125 15.6667V2.33334C6.73125 2.09722 6.81045 1.89917 6.96885 1.73917C7.12725 1.57917 7.32305 1.49945 7.55625 1.5H10.4437C10.6775 1.5 10.8736 1.58 11.032 1.74C11.1904 1.9 11.2693 2.09778 11.2687 2.33334V15.6667C11.2687 15.9028 11.1895 16.1008 11.0311 16.2608C10.8727 16.4208 10.6769 16.5006 10.4437 16.5H7.55625Z" fill="#E78459"/>
<path d="M13.5375 16.5C13.3037 16.5 13.1077 16.42 12.9493 16.26C12.7909 16.1 12.7119 15.9022 12.7125 15.6667V9C12.7125 8.76389 12.7917 8.56583 12.9501 8.40583C13.1085 8.24583 13.3043 8.16611 13.5375 8.16667H16.425C16.6587 8.16667 16.8548 8.24667 17.0132 8.40667C17.1716 8.56667 17.2505 8.76444 17.25 9V15.6667C17.25 15.9028 17.1708 16.1008 17.0124 16.2608C16.854 16.4208 16.6582 16.5006 16.425 16.5H13.5375Z" fill="#77C2BE"/>
<path d="M1.575 16.5C1.34125 16.5 1.14518 16.42 0.986778 16.26C0.828378 16.1 0.749453 15.9022 0.750003 15.6667V7.33333C0.750003 7.09722 0.829203 6.89917 0.987603 6.73917C1.146 6.57917 1.3418 6.49944 1.575 6.5H4.4625C4.69625 6.5 4.89233 6.58 5.05073 6.74C5.20913 6.9 5.28805 7.09778 5.2875 7.33333V15.6667C5.2875 15.9028 5.2083 16.1008 5.0499 16.2608C4.8915 16.4208 4.6957 16.5006 4.4625 16.5H1.575Z" fill="#F1C85C"/>
</svg>
