<svg width="24" height="24" viewBox="0 0 24 24" fill="none" xmlns="http://www.w3.org/2000/svg">
<path d="M12 9.43363C11.8 9.18078 11.5417 8.98255 11.225 8.83894C10.9083 8.69532 10.5667 8.62385 10.2 8.62453C9.6 8.62453 9.08333 8.84366 8.65 9.28192C8.21667 9.72019 8 10.2427 8 10.8496C8 11.3721 8.13333 11.8525 8.4 12.2908C8.66667 12.729 9.28333 13.4201 10.25 14.3641L11.325 15.3755C11.5083 15.5609 11.7333 15.6536 12 15.6536C12.2667 15.6536 12.4917 15.5609 12.675 15.3755L13.725 14.3894C14.675 13.4623 15.2917 12.7671 15.575 12.3039C15.8583 11.8407 16 11.3559 16 10.8496C16 10.2427 15.7833 9.72019 15.35 9.28192C14.9167 8.84366 14.4 8.62453 13.8 8.62453C13.45 8.62453 13.1123 8.69633 12.787 8.83995C12.4617 8.98357 12.1993 9.18146 12 9.43363ZM12 22H11.75C11.6667 22 11.5917 21.9831 11.525 21.9494C9.34167 21.2583 7.54167 19.8886 6.125 17.8402C4.70833 15.7918 4 13.529 4 11.0518V6.27307C4 5.85166 4.121 5.4724 4.363 5.13527C4.605 4.79815 4.91733 4.55373 5.3 4.40202L11.3 2.12642C11.5333 2.04214 11.7667 2 12 2C12.2333 2 12.4667 2.04214 12.7 2.12642L18.7 4.40202C19.0833 4.55373 19.396 4.79815 19.638 5.13527C19.88 5.4724 20.0007 5.85166 20 6.27307V11.0518C20 13.5297 19.2917 15.7928 17.875 17.8412C16.4583 19.8896 14.6583 21.259 12.475 21.9494C12.3917 21.9831 12.2333 22 12 22Z" fill="#EACB7D"/>
<path d="M12 9.43363C11.8 9.18078 11.5417 8.98255 11.225 8.83894C10.9083 8.69532 10.5667 8.62385 10.2 8.62453C9.6 8.62453 9.08333 8.84366 8.65 9.28192C8.21667 9.72019 8 10.2427 8 10.8496C8 11.3721 8.13333 11.8525 8.4 12.2908C8.66667 12.729 9.28333 13.4201 10.25 14.3641L11.325 15.3755C11.5083 15.5609 11.7333 15.6536 12 15.6536C12.2667 15.6536 12.4917 15.5609 12.675 15.3755L13.725 14.3894C14.675 13.4623 15.2917 12.7671 15.575 12.3039C15.8583 11.8407 16 11.3559 16 10.8496C16 10.2427 15.7833 9.72019 15.35 9.28192C14.9167 8.84366 14.4 8.62453 13.8 8.62453C13.45 8.62453 13.1123 8.69633 12.787 8.83995C12.4617 8.98357 12.1993 9.18146 12 9.43363Z" fill="#BA1A1A"/>
</svg>
