<svg width="16" height="16" viewBox="0 0 16 16" fill="none" xmlns="http://www.w3.org/2000/svg">
<path d="M8 14.2188L7.03125 13.3438C5.92708 12.3438 5.125 11.6042 4.625 11.125C4.125 10.6458 3.5625 10.0521 2.9375 9.34375C2.33333 8.63542 1.91667 8 1.6875 7.4375C1.45833 6.85417 1.34375 6.26042 1.34375 5.65625C1.34375 4.63542 1.6875 3.77083 2.375 3.0625C3.08333 2.35417 3.95833 2 5 2C6.20833 2 7.20833 2.46875 8 3.40625C8.79167 2.46875 9.79167 2 11 2C12.0417 2 12.9062 2.35417 13.5938 3.0625C14.3021 3.77083 14.6562 4.63542 14.6562 5.65625C14.6562 6.46875 14.3854 7.3125 13.8438 8.1875C13.3021 9.0625 12.7083 9.82292 12.0625 10.4688C11.4375 11.1146 10.4062 12.0833 8.96875 13.375L8 14.2188Z" fill="#FF483E"/>
</svg>
