<svg width="26" height="36" viewBox="0 0 26 36" fill="none" xmlns="http://www.w3.org/2000/svg">
<path d="M18.3451 16.4528L22.8958 10.1522L26 12.6325L21.4494 18.9362L18.3451 16.4528ZM17.4137 15.7269L22.2526 9.02323L18.9934 6.42177L14.1545 13.1254L17.4137 15.7269ZM15.4234 8.27822L14.0256 11.2926L18.1539 5.57925L15.075 3.11871L12.4503 6.75314L15.4234 8.27822ZM13.9213 2.69897L10.5433 0L7.50131 4.21338L11.3885 6.20695L13.9213 2.69897ZM21.671 20.6403L11.6036 12.8161L10.8851 12.8854L11.2154 13.0378L15.7175 23.5831L14.521 23.7545L10.3434 13.9656L7.44627 12.6173L7.15656 10.268L10.0109 11.7473L12.6444 11.4937L13.8756 8.84041L5.84345 4.71996L0 13.2907L7.32169 24.907L5.67759 36H19.1563V26.8838L21.7123 23.1565L22.488 19.506L21.671 20.6403Z" fill="black"/>
</svg>
