<svg width="35" height="35" viewBox="0 0 35 35" fill="none" xmlns="http://www.w3.org/2000/svg">
<g clip-path="url(#clip0_0_20)">
<g filter="url(#filter0_d_0_20)">
<path fill-rule="evenodd" clip-rule="evenodd" d="M17.5 21.8749C16.4913 21.8749 15.5434 21.6834 14.6562 21.3003C13.7691 20.9173 12.9974 20.3979 12.3411 19.7421C11.6849 19.0859 11.1655 18.3142 10.7829 17.427C10.4003 16.5399 10.2088 15.5919 10.2083 14.5833C10.2083 13.5746 10.3998 12.6267 10.7829 11.7395C11.166 10.8524 11.6854 10.0807 12.3411 9.42441C12.9974 8.76816 13.7691 8.24875 14.6562 7.86618C15.5434 7.48361 16.4913 7.29208 17.5 7.2916C18.5087 7.2916 19.4566 7.48312 20.3437 7.86618C21.2309 8.24923 22.0026 8.76864 22.6588 9.42441C23.3151 10.0807 23.8347 10.8524 24.2178 11.7395C24.6008 12.6267 24.7921 13.5746 24.7916 14.5833C24.7916 15.5919 24.6001 16.5399 24.2171 17.427C23.834 18.3142 23.3146 19.0859 22.6588 19.7421C22.0026 20.3984 21.2309 20.918 20.3437 21.3011C19.4566 21.6841 18.5087 21.8754 17.5 21.8749ZM21.2662 12.4433C21.4615 12.6385 21.4615 12.9551 21.2662 13.1504L16.8327 17.5839C16.6374 17.7791 16.3209 17.7791 16.1256 17.5839L13.7337 15.192C13.5385 14.9968 13.5385 14.6802 13.7337 14.4849L14.0475 14.1712C14.2427 13.9759 14.5593 13.9759 14.7546 14.1712L16.1256 15.5422C16.3209 15.7375 16.6374 15.7375 16.8327 15.5422L20.2454 12.1295C20.4406 11.9343 20.7572 11.9343 20.9525 12.1295L21.2662 12.4433Z" fill="#DFDFDF"/>
<path fill-rule="evenodd" clip-rule="evenodd" d="M17.5 2.9166C23.625 2.9166 29.1666 7.61243 29.1666 14.8749C29.1666 19.6485 25.3817 25.2867 17.8258 31.8036C17.6397 31.9642 17.3603 31.9642 17.1741 31.8036C9.61824 25.2867 5.83331 19.6485 5.83331 14.8749C5.83331 7.61243 11.375 2.9166 17.5 2.9166ZM17.5 21.8749C16.4913 21.8749 15.5434 21.6834 14.6562 21.3003C13.7691 20.9173 12.9974 20.3979 12.3411 19.7421C11.6849 19.0859 11.1655 18.3142 10.7829 17.427C10.4003 16.5399 10.2088 15.5919 10.2083 14.5833C10.2083 13.5746 10.3998 12.6267 10.7829 11.7395C11.166 10.8524 11.6854 10.0807 12.3411 9.42441C12.9974 8.76816 13.7691 8.24875 14.6562 7.86618C15.5434 7.48361 16.4913 7.29208 17.5 7.2916C18.5087 7.2916 19.4566 7.48312 20.3437 7.86618C21.2309 8.24923 22.0026 8.76864 22.6588 9.42441C23.3151 10.0807 23.8347 10.8524 24.2178 11.7395C24.6008 12.6267 24.7921 13.5746 24.7916 14.5833C24.7916 15.5919 24.6001 16.5399 24.2171 17.427C23.834 18.3142 23.3146 19.0859 22.6588 19.7421C22.0026 20.3984 21.2309 20.918 20.3437 21.3011C19.4566 21.6841 18.5087 21.8754 17.5 21.8749Z" fill="#D72E24"/>
<path d="M16.1256 17.5839C16.3209 17.7791 16.6374 17.7791 16.8327 17.5839L21.2662 13.1504C21.4615 12.9551 21.4615 12.6385 21.2662 12.4433L20.9525 12.1295C20.7572 11.9343 20.4406 11.9343 20.2454 12.1295L16.8327 15.5422C16.6374 15.7375 16.3209 15.7375 16.1256 15.5422L14.7546 14.1712C14.5593 13.9759 14.2427 13.9759 14.0475 14.1712L13.7337 14.4849C13.5385 14.6802 13.5385 14.9968 13.7337 15.192L16.1256 17.5839Z" fill="#5BBFF3"/>
</g>
</g>
<defs>
<filter id="filter0_d_0_20" x="2.83331" y="1.9166" width="29.3333" height="35.0075" filterUnits="userSpaceOnUse" color-interpolation-filters="sRGB">
<feFlood flood-opacity="0" result="BackgroundImageFix"/>
<feColorMatrix in="SourceAlpha" type="matrix" values="0 0 0 0 0 0 0 0 0 0 0 0 0 0 0 0 0 0 127 0" result="hardAlpha"/>
<feOffset dy="2"/>
<feGaussianBlur stdDeviation="1.5"/>
<feComposite in2="hardAlpha" operator="out"/>
<feColorMatrix type="matrix" values="0 0 0 0 0 0 0 0 0 0 0 0 0 0 0 0 0 0 0.2 0"/>
<feBlend mode="normal" in2="BackgroundImageFix" result="effect1_dropShadow_0_20"/>
<feBlend mode="normal" in="SourceGraphic" in2="effect1_dropShadow_0_20" result="shape"/>
</filter>
<clipPath id="clip0_0_20">
<rect width="35" height="35" fill="white"/>
</clipPath>
</defs>
</svg>
