<svg width="50" height="50" viewBox="0 0 50 50" fill="none" xmlns="http://www.w3.org/2000/svg">
<path d="M39.0137 13.7572L38.8112 13.8539L38.7489 14.0695L34.9364 27.257L34.9167 27.325V27.3958V37H15.0834V27.3958V27.325L15.0637 27.257L11.2512 14.0695L11.1889 13.8539L10.9864 13.7571C9.74662 13.165 8.83337 11.8926 8.83337 10.4167C8.83337 9.4442 9.21968 8.51157 9.90732 7.82394C10.5949 7.13631 11.5276 6.75 12.5 6.75C13.4725 6.75 14.4051 7.13631 15.0928 7.82394C15.7804 8.51157 16.1667 9.4442 16.1667 10.4167C16.1667 11.3333 15.8386 12.1505 15.256 12.7876L14.9469 13.1257L15.2567 13.4631L21.09 19.8173L21.8047 20.5958L21.9534 19.5495L23.0576 11.7787L23.1001 11.4793L22.8547 11.3026C21.9374 10.6421 21.3334 9.56096 21.3334 8.33333C21.3334 7.36087 21.7197 6.42824 22.4073 5.74061C23.095 5.05297 24.0276 4.66666 25 4.66666C25.9725 4.66666 26.9051 5.05297 27.5928 5.74061C28.2804 6.42824 28.6667 7.36087 28.6667 8.33333C28.6667 9.56096 28.0627 10.6421 27.1454 11.3026L26.9 11.4793L26.9425 11.7787L28.0467 19.5495L28.1967 20.6053L28.9124 19.8147L34.6832 13.4397L34.9762 13.1161L34.695 12.7821C34.1378 12.1202 33.8325 11.2825 33.8334 10.4171V10.4167C33.8334 9.4442 34.2197 8.51157 34.9073 7.82394C35.595 7.13631 36.5276 6.75 37.5 6.75C38.4725 6.75 39.4051 7.13631 40.0928 7.82394C40.7804 8.51157 41.1667 9.4442 41.1667 10.4167C41.1667 11.8926 40.2535 13.165 39.0137 13.7572ZM39.0834 42.1667V45.3333H10.9167V42.1667H39.0834Z" fill="#E6B947" stroke="#DAB148"/>
</svg>
