<svg width="50" height="50" viewBox="0 0 50 50" fill="none" xmlns="http://www.w3.org/2000/svg">
<g clip-path="url(#clip0_0_153)">
<path d="M3.81946 26.8514L6.94446 22.2222L11.1111 26.3889L16.6667 23.6111L20.8333 27.7778L26.3889 19.4444L31.9445 23.6111L36.1111 22.2222L38.8889 26.3889L43.0556 22.2222L45.8334 27.7778L43.0556 37.5L27.7778 44.4444L12.5 41.6667L4.16668 33.3333L3.81946 26.8514Z" fill="#99AAB5"/>
<path d="M41.6056 20.4333C41.6348 20.0347 41.6667 19.6361 41.6667 19.2306C41.6667 10.9764 35.6611 4.14167 27.7834 2.81528C29.4347 2.45417 30.6042 2.10833 29.1667 1.38889C27.6181 0.61389 26.0695 1.56806 25.0014 2.56389H24.9986C23.9306 1.56806 22.3834 0.61389 20.8334 1.38889C19.3959 2.10833 20.5653 2.45417 22.2167 2.81389C14.3403 4.14028 8.33336 10.975 8.33336 19.2306C8.33336 19.6361 8.36531 20.0347 8.39447 20.4347C7.72503 29.6014 -0.359695 43.0556 25 43.0556C50.3597 43.0556 42.275 29.6014 41.6056 20.4333Z" fill="#FFDE6A"/>
<path d="M29.1667 19.4444C29.1667 21.7458 27.3014 22.2222 25 22.2222C22.6987 22.2222 20.8334 21.7458 20.8334 19.4444C20.8334 18.3394 21.2724 17.2796 22.0538 16.4982C22.8352 15.7168 23.895 15.2778 25 15.2778C26.1051 15.2778 27.1649 15.7168 27.9463 16.4982C28.7277 17.2796 29.1667 18.3394 29.1667 19.4444Z" fill="#FF9B16"/>
<path d="M15.9722 18.0556C17.1228 18.0556 18.0556 17.1228 18.0556 15.9722C18.0556 14.8216 17.1228 13.8889 15.9722 13.8889C14.8217 13.8889 13.8889 14.8216 13.8889 15.9722C13.8889 17.1228 14.8217 18.0556 15.9722 18.0556Z" fill="#5B3028"/>
<path d="M34.0278 18.0556C35.1784 18.0556 36.1111 17.1228 36.1111 15.9722C36.1111 14.8216 35.1784 13.8889 34.0278 13.8889C32.8772 13.8889 31.9445 14.8216 31.9445 15.9722C31.9445 17.1228 32.8772 18.0556 34.0278 18.0556Z" fill="#5B3028"/>
<path d="M43.0556 34.7222L38.8889 33.3333L33.3334 41.6667L29.1667 34.7222L26.3889 37.5L20.8334 34.7222L16.6667 40.2778L12.5001 31.9444L8.33339 34.7222L3.75839 23.9375C3.1097 25.8451 2.77845 27.8462 2.77783 29.8611C2.77783 40.9847 12.7278 50 25.0001 50C37.2723 50 47.2223 40.9847 47.2223 29.8611C47.2223 28.1333 46.957 26.4667 46.5042 24.8653L43.0556 34.7222Z" fill="#E1E8ED"/>
</g>
<defs>
<clipPath id="clip0_0_153">
<rect width="50" height="50" fill="white"/>
</clipPath>
</defs>
</svg>
